<svg width="512" height="512" viewBox="0 0 512 512" fill="none" xmlns="http://www.w3.org/2000/svg">
<path fill-rule="evenodd" clip-rule="evenodd" d="M336.601 139.003C329.748 132.255 318.732 132.343 311.994 139.207C305.677 145.643 305.363 155.75 310.997 162.548L312.209 163.852L405.776 256L312.209 348.148C305.356 354.896 305.256 365.929 311.994 372.793C318.732 379.657 329.748 379.745 336.601 372.997L442.8 268.425C446.126 265.148 448 260.673 448 256C448 251.328 446.126 246.852 442.8 243.575L336.601 139.003Z" fill="white"/>
<path fill-rule="evenodd" clip-rule="evenodd" d="M200.006 138.232C193.689 131.771 183.607 131.283 176.725 136.83L175.399 138.027L69.2001 243.025C65.8741 246.314 64 250.808 64 255.5C64 260.192 65.8741 264.686 69.2001 267.975L175.399 372.973L176.725 374.17C183.607 379.717 193.689 379.229 200.006 372.768C206.323 366.307 206.637 356.158 201.003 349.333L199.791 348.023L106.212 255.5L199.791 162.977C206.644 156.202 206.744 145.123 200.006 138.232Z" fill="white"/>
</svg>
