<svg width="512" height="512" viewBox="0 0 512 512" fill="none" xmlns="http://www.w3.org/2000/svg">
<g clip-path="url(#clip0_2638_3)">
<rect width="512" height="512" rx="256" fill="white"/>
<path fill-rule="evenodd" clip-rule="evenodd" d="M256 0C397.385 0 512 114.615 512 256C512 397.385 397.385 512 256 512C114.615 512 0 397.385 0 256C0 114.615 114.615 0 256 0ZM336.261 138.83C329.387 132.071 318.338 132.16 311.58 139.034C305.243 145.479 304.928 155.601 310.58 162.409L311.795 163.716L405.648 256L311.795 348.284C304.922 355.042 304.821 366.092 311.58 372.966C318.338 379.84 329.387 379.929 336.261 373.17L442.784 268.443C446.12 265.162 448 260.679 448 256C448 251.321 446.12 246.838 442.784 243.557L336.261 138.83ZM200.42 139.034C194.084 132.59 183.971 132.103 177.068 137.636L175.739 138.83L69.2159 243.557C65.8798 246.838 64 251.321 64 256C64 260.679 65.8798 265.162 69.2159 268.443L175.739 373.17L177.068 374.364C183.971 379.897 194.084 379.41 200.42 372.966C206.757 366.521 207.072 356.399 201.42 349.591L200.205 348.284L106.341 256L200.205 163.716C207.078 156.958 207.179 145.908 200.42 139.034Z" fill="url(#paint0_linear_2638_3)"/>
</g>
<defs>
<linearGradient id="paint0_linear_2638_3" x1="0" y1="0" x2="51200" y2="51200" gradientUnits="userSpaceOnUse">
<stop stop-color="#3B82F6"/>
<stop offset="0.5" stop-color="#2563EB"/>
<stop offset="1" stop-color="#1D4ED8"/>
</linearGradient>
<clipPath id="clip0_2638_3">
<rect width="512" height="512" rx="256" fill="white"/>
</clipPath>
</defs>
</svg>
